<svg width="34" height="32" viewBox="0 0 34 32" fill="none" xmlns="http://www.w3.org/2000/svg">
<g clip-path="url(#clip0_5498_21273)">
<path d="M23.3223 11.293L20.7246 13.3711C20.7246 13.4531 20.752 13.5078 20.752 13.5625C20.752 14.3008 20.1504 14.875 19.4395 14.875C18.7012 14.875 18.127 14.3008 18.127 13.5625C18.127 13.5078 18.127 13.4531 18.127 13.3711L15.5293 11.293C15.3926 11.3477 15.2285 11.375 15.0645 11.375C14.9277 11.375 14.8184 11.375 14.709 11.3477L11.9473 14.1094C11.9746 14.2188 12.002 14.3281 12.002 14.4375C12.002 15.1758 11.4004 15.75 10.6895 15.75C9.95117 15.75 9.37695 15.1758 9.37695 14.4375C9.37695 13.7266 9.95117 13.125 10.6895 13.125C10.7988 13.125 10.9082 13.1523 11.0176 13.1797L13.7793 10.418C13.752 10.3086 13.752 10.1992 13.752 10.0625C13.752 9.35156 14.3262 8.75 15.0645 8.75C15.7754 8.75 16.377 9.35156 16.377 10.0625C16.377 10.1445 16.3496 10.1992 16.3496 10.2812L18.9473 12.3594C19.1113 12.3047 19.248 12.25 19.4395 12.25C19.6035 12.25 19.7676 12.3047 19.9043 12.3594L22.502 10.2812C22.502 10.1992 22.502 10.1445 22.502 10.0625C22.502 9.35156 23.0762 8.75 23.8145 8.75C24.5254 8.75 25.127 9.35156 25.127 10.0625C25.127 10.8008 24.5254 11.375 23.8145 11.375C23.623 11.375 23.4863 11.3477 23.3223 11.293ZM19.877 17.5C20.3418 17.5 20.752 17.9102 20.752 18.375V21.875C20.752 22.3672 20.3418 22.75 19.877 22.75H19.002C18.5098 22.75 18.127 22.3672 18.127 21.875V18.375C18.127 17.9102 18.5098 17.5 19.002 17.5H19.877ZM24.252 14C24.7168 14 25.127 14.4102 25.127 14.875V21.875C25.127 22.3672 24.7168 22.75 24.252 22.75H23.377C22.8848 22.75 22.502 22.3672 22.502 21.875V14.875C22.502 14.4102 22.8848 14 23.377 14H24.252ZM15.502 14C15.9668 14 16.377 14.4102 16.377 14.875V21.875C16.377 22.3672 15.9668 22.75 15.502 22.75H14.627C14.1348 22.75 13.752 22.3672 13.752 21.875V14.875C13.752 14.4102 14.1348 14 14.627 14H15.502ZM11.127 18.375C11.5918 18.375 12.002 18.7852 12.002 19.25V21.875C12.002 22.3672 11.5918 22.75 11.127 22.75H10.252C9.75977 22.75 9.37695 22.3672 9.37695 21.875V19.25C9.37695 18.7852 9.75977 18.375 10.252 18.375H11.127Z" fill="black"/>
</g>
<defs>
<clipPath id="clip0_5498_21273">
<rect x="0.751953" width="33" height="32" rx="6" fill="white"/>
</clipPath>
</defs>
</svg>
