<svg width="32" height="32" viewBox="0 0 32 32" fill="none" xmlns="http://www.w3.org/2000/svg">
<path d="M21.5 10H20V8.375C20 8.1875 19.8125 8 19.625 8H18.375C18.1562 8 18 8.1875 18 8.375V10H14V8.375C14 8.1875 13.8125 8 13.625 8H12.375C12.1562 8 12 8.1875 12 8.375V10H10.5C9.65625 10 9 10.6875 9 11.5V22.5C9 23.3438 9.65625 24 10.5 24H21.5C22.3125 24 23 23.3438 23 22.5V11.5C23 10.6875 22.3125 10 21.5 10ZM21.3125 22.5H10.6875C10.5625 22.5 10.5 22.4375 10.5 22.3125V13H21.5V22.3125C21.5 22.4375 21.4062 22.5 21.3125 22.5ZM19.6562 16.25C19.7812 16.0938 19.7812 15.875 19.6562 15.7188L18.9375 15C18.8125 14.8438 18.5625 14.8438 18.4062 15L14.9375 18.4375L13.5625 17.0625C13.4062 16.9062 13.1875 16.9062 13.0312 17.0625L12.3125 17.75C12.1875 17.9062 12.1875 18.1562 12.3125 18.2812L14.6562 20.6562C14.8125 20.8125 15.0625 20.8125 15.1875 20.6562L19.6562 16.25Z" fill="black"/>
</svg>
