<svg width="14" height="16" viewBox="0 0 14 16" fill="none" xmlns="http://www.w3.org/2000/svg">
<path d="M12.9277 2.9375H10.6582L9.72852 1.40625C9.50977 1.02344 9.07227 0.75 8.60742 0.75H5.8457C5.38086 0.75 4.94336 1.02344 4.72461 1.40625L3.79492 2.9375H1.55273C1.30664 2.9375 1.11523 3.15625 1.11523 3.375V3.8125C1.11523 4.05859 1.30664 4.25 1.55273 4.25H1.99023L2.56445 13.5195C2.5918 14.2305 3.16602 14.75 3.87695 14.75H10.5762C11.2871 14.75 11.8613 14.2305 11.8887 13.5195L12.4902 4.25H12.9277C13.1465 4.25 13.3652 4.05859 13.3652 3.8125V3.375C13.3652 3.15625 13.1465 2.9375 12.9277 2.9375ZM5.8457 2.0625H8.60742L9.12695 2.9375H5.32617L5.8457 2.0625ZM10.5762 13.4375H3.87695L3.30273 4.25H11.1504L10.5762 13.4375Z" fill="#E7695C"/>
</svg>
