<svg width="15" height="15" viewBox="0 0 15 15" fill="none" xmlns="http://www.w3.org/2000/svg">
<path d="M12.6816 1.26953C12.3535 0.941406 11.8887 0.75 11.4512 0.75C11.0137 0.75 10.5488 0.941406 10.2207 1.26953L1.4707 10.0195C1.22461 10.2656 1.06055 10.5664 0.978516 10.8945L0.240234 14.2305C0.185547 14.5039 0.404297 14.75 0.650391 14.75C0.677734 14.75 0.732422 14.75 0.759766 14.75C0.759766 14.75 3.05664 14.2578 4.0957 14.0117C4.42383 13.957 4.69727 13.793 4.94336 13.5469C6.2832 12.207 11.3418 7.14844 13.7207 4.76953C14.4043 4.08594 14.4043 2.99219 13.7207 2.30859L12.6816 1.26953ZM4.01367 12.6172C3.95898 12.6992 3.87695 12.7266 3.79492 12.7539C3.30273 12.8633 2.50977 13.0273 1.82617 13.1914L2.26367 11.168C2.29102 11.0859 2.31836 11.0039 2.40039 10.9492L8.99023 4.33203L10.6582 6L4.01367 12.6172Z" fill="black"/>
</svg>
