<svg width="40" height="40" viewBox="0 0 40 40" fill="none" xmlns="http://www.w3.org/2000/svg">
<rect x="0.5" y="0.5" width="39" height="39" rx="7.5" stroke="black"/>
<path d="M25.6816 13.2695C25.3535 12.9414 24.8887 12.75 24.4512 12.75C24.0137 12.75 23.5488 12.9414 23.2207 13.2695L14.4707 22.0195C14.2246 22.2656 14.0605 22.5664 13.9785 22.8945L13.2402 26.2305C13.1855 26.5039 13.4043 26.75 13.6504 26.75C13.6777 26.75 13.7324 26.75 13.7598 26.75C13.7598 26.75 16.0566 26.2578 17.0957 26.0117C17.4238 25.957 17.6973 25.793 17.9434 25.5469C19.2832 24.207 24.3418 19.1484 26.7207 16.7695C27.4043 16.0859 27.4043 14.9922 26.7207 14.3086L25.6816 13.2695ZM17.0137 24.6172C16.959 24.6992 16.877 24.7266 16.7949 24.7539C16.3027 24.8633 15.5098 25.0273 14.8262 25.1914L15.2637 23.168C15.291 23.0859 15.3184 23.0039 15.4004 22.9492L21.9902 16.332L23.6582 18L17.0137 24.6172Z" fill="black"/>
</svg>
