<svg width="24" height="24" viewBox="0 0 24 24" fill="none" xmlns="http://www.w3.org/2000/svg">
<g clip-path="url(#clip0_1581_11334)">
<path d="M7.63636 16.8352H16.3636V9.67662L12 5.71008L7.63636 9.67662V16.8352ZM17.0909 18.2897H6.90909C6.71621 18.2897 6.53122 18.2131 6.39483 18.0767C6.25844 17.9403 6.18182 17.7553 6.18182 17.5624V11.017H4L11.5105 4.18935C11.6444 4.06752 11.819 4 12 4C12.181 4 12.3556 4.06752 12.4895 4.18935L20 11.017H17.8182V17.5624C17.8182 17.7553 17.7416 17.9403 17.6052 18.0767C17.4688 18.2131 17.2838 18.2897 17.0909 18.2897ZM8.72727 12.4715H10.1818C10.1818 12.9537 10.3734 13.4162 10.7144 13.7572C11.0553 14.0982 11.5178 14.2897 12 14.2897C12.4822 14.2897 12.9447 14.0982 13.2856 13.7572C13.6266 13.4162 13.8182 12.9537 13.8182 12.4715H15.2727C15.2727 13.3395 14.9279 14.1719 14.3142 14.7857C13.7004 15.3995 12.868 15.7443 12 15.7443C11.132 15.7443 10.2996 15.3995 9.68583 14.7857C9.07208 14.1719 8.72727 13.3395 8.72727 12.4715Z" fill="black"/>
</g>
<defs>
<clipPath id="clip0_1581_11334">
<rect width="24" height="24" fill="white"/>
</clipPath>
</defs>
</svg>
