<svg width="24" height="32" viewBox="0 0 24 32" fill="none" xmlns="http://www.w3.org/2000/svg">
<path d="M19.6836 12.5509H8.08984C7.89844 12.5509 7.76172 12.4142 7.76172 12.2228V11.3478C7.76172 11.1837 7.89844 11.0197 8.08984 11.0197H19.6836C19.8477 11.0197 20.0117 11.1837 20.0117 11.3478V12.2228C20.0117 12.4142 19.8477 12.5509 19.6836 12.5509ZM19.6836 16.9259H8.08984C7.89844 16.9259 7.76172 16.7892 7.76172 16.5978V15.7228C7.76172 15.5587 7.89844 15.3947 8.08984 15.3947H19.6836C19.8477 15.3947 20.0117 15.5587 20.0117 15.7228V16.5978C20.0117 16.7892 19.8477 16.9259 19.6836 16.9259ZM19.6836 21.3009H8.08984C7.89844 21.3009 7.76172 21.1642 7.76172 20.9728V20.0978C7.76172 19.9337 7.89844 19.7697 8.08984 19.7697H19.6836C19.8477 19.7697 20.0117 19.9337 20.0117 20.0978V20.9728C20.0117 21.1642 19.8477 21.3009 19.6836 21.3009Z" fill="black"/>
</svg>
