<svg width="34" height="32" viewBox="0 0 34 32" fill="none" xmlns="http://www.w3.org/2000/svg">
<g clip-path="url(#clip0_5498_19224)">
<path d="M17.252 22.75C16.2676 22.75 15.502 21.9844 15.502 21H18.9746C18.9746 21.9844 18.209 22.75 17.252 22.75ZM23.1309 18.6758C23.2949 18.8398 23.377 19.0586 23.377 19.25C23.3496 19.7148 23.0215 20.125 22.4746 20.125H12.002C11.4551 20.125 11.127 19.7148 11.127 19.25C11.0996 19.0586 11.1816 18.8398 11.3457 18.6758C11.8652 18.1016 12.877 17.2539 12.877 14.4375C12.877 12.332 14.3535 10.6367 16.377 10.1992V9.625C16.377 9.16016 16.7598 8.75 17.252 8.75C17.7168 8.75 18.0996 9.16016 18.0996 9.625V10.1992C20.123 10.6367 21.5996 12.332 21.5996 14.4375C21.5996 17.2539 22.6113 18.1016 23.1309 18.6758Z" fill="white"/>
</g>
<defs>
<clipPath id="clip0_5498_19224">
<rect x="0.751953" width="33" height="32" rx="6" fill="white"/>
</clipPath>
</defs>
</svg>
