<svg width="15" height="16" viewBox="0 0 15 16" fill="none" xmlns="http://www.w3.org/2000/svg">
<path d="M14.0334 13.5742L10.7248 10.2656C10.6428 10.2109 10.5607 10.1562 10.4787 10.1562H10.1232C10.9709 9.17188 11.5178 7.85938 11.5178 6.4375C11.5178 3.32031 8.94745 0.75 5.83026 0.75C2.68573 0.75 0.142761 3.32031 0.142761 6.4375C0.142761 9.58203 2.68573 12.125 5.83026 12.125C7.25214 12.125 8.53729 11.6055 9.54901 10.7578V11.1133C9.54901 11.1953 9.57635 11.2773 9.63104 11.3594L12.9396 14.668C13.0764 14.8047 13.2951 14.8047 13.4045 14.668L14.0334 14.0391C14.1701 13.9297 14.1701 13.7109 14.0334 13.5742ZM5.83026 10.8125C3.39667 10.8125 1.45526 8.87109 1.45526 6.4375C1.45526 4.03125 3.39667 2.0625 5.83026 2.0625C8.23651 2.0625 10.2053 4.03125 10.2053 6.4375C10.2053 8.87109 8.23651 10.8125 5.83026 10.8125Z" fill="#757678"/>
</svg>
