<svg width="20" height="24" viewBox="0 0 20 24" fill="none" xmlns="http://www.w3.org/2000/svg">
<path d="M5.56766 6.12833L7.48109 4.21489C7.61873 4.0773 7.80538 4 8 4C8.19462 4 8.38127 4.0773 8.51891 4.21489L10.4323 6.12833H13.1377C13.3324 6.12833 13.5191 6.20565 13.6567 6.3433C13.7943 6.48094 13.8717 6.66763 13.8717 6.86228V9.56766L15.7851 11.4811C15.9227 11.6187 16 11.8054 16 12C16 12.1946 15.9227 12.3813 15.7851 12.5189L13.8717 14.4323V17.1377C13.8717 17.3324 13.7943 17.5191 13.6567 17.6567C13.5191 17.7943 13.3324 17.8717 13.1377 17.8717H10.4323L8.51891 19.7851C8.38127 19.9227 8.19462 20 8 20C7.80538 20 7.61873 19.9227 7.48109 19.7851L5.56766 17.8717H2.86228C2.66763 17.8717 2.48094 17.7943 2.3433 17.6567C2.20565 17.5191 2.12833 17.3324 2.12833 17.1377V14.4323L0.214893 12.5189C0.0772972 12.3813 0 12.1946 0 12C0 11.8054 0.0772972 11.6187 0.214893 11.4811L2.12833 9.56766V6.86228C2.12833 6.66763 2.20565 6.48094 2.3433 6.3433C2.48094 6.20565 2.66763 6.12833 2.86228 6.12833H5.56766ZM3.59624 7.59624V10.1761L1.77236 12L3.59624 13.8239V16.4038H6.17611L8 18.2276L9.82389 16.4038H12.4038V13.8239L14.2276 12L12.4038 10.1761V7.59624H9.82389L8 5.77236L6.17611 7.59624H3.59624ZM8 14.9358C7.22137 14.9358 6.47463 14.6265 5.92405 14.076C5.37347 13.5254 5.06416 12.7786 5.06416 12C5.06416 11.2214 5.37347 10.4746 5.92405 9.92405C6.47463 9.37347 7.22137 9.06416 8 9.06416C8.77863 9.06416 9.52538 9.37347 10.076 9.92405C10.6265 10.4746 10.9358 11.2214 10.9358 12C10.9358 12.7786 10.6265 13.5254 10.076 14.076C9.52538 14.6265 8.77863 14.9358 8 14.9358ZM8 13.4679C8.38932 13.4679 8.76269 13.3133 9.03798 13.038C9.31326 12.7627 9.46792 12.3893 9.46792 12C9.46792 11.6107 9.31326 11.2373 9.03798 10.962C8.76269 10.6867 8.38932 10.5321 8 10.5321C7.61068 10.5321 7.23731 10.6867 6.96203 10.962C6.68674 11.2373 6.53208 11.6107 6.53208 12C6.53208 12.3893 6.68674 12.7627 6.96203 13.038C7.23731 13.3133 7.61068 13.4679 8 13.4679Z" fill="black"/>
</svg>
