<svg width="12" height="15" viewBox="0 0 12 15" fill="none" xmlns="http://www.w3.org/2000/svg">
<path d="M10.8398 3.42969L8.54297 1.16016C8.29688 0.914062 7.96875 0.75 7.64062 0.75H2.03516C1.32422 0.777344 0.75 1.35156 0.75 2.08984V13.4648C0.75 14.1758 1.32422 14.75 2.03516 14.75H9.91016C10.6484 14.75 11.25 14.1758 11.25 13.4648V4.35938C11.25 4.03125 11.0859 3.67578 10.8398 3.42969ZM7.72266 2.17188L9.82812 4.27734H7.72266V2.17188ZM9.9375 13.4648H2.03516V2.08984H6.41016V4.93359C6.41016 5.28906 6.71094 5.58984 7.06641 5.58984H9.9375V13.4648ZM6.4375 6.65625C6.4375 6.54688 6.32812 6.4375 6.21875 6.4375H5.78125C5.64453 6.4375 5.5625 6.54688 5.5625 6.65625V7.33984C4.90625 7.33984 4.38672 7.88672 4.38672 8.57031C4.38672 9.11719 4.74219 9.58203 5.23438 9.74609L6.46484 10.1289C6.62891 10.1562 6.71094 10.293 6.71094 10.457C6.71094 10.6758 6.57422 10.8125 6.38281 10.8125H5.61719C5.50781 10.8125 5.37109 10.7852 5.26172 10.7305C5.17969 10.6758 5.07031 10.6758 4.98828 10.7578L4.6875 11.0586C4.57812 11.1406 4.57812 11.3047 4.6875 11.3867C4.93359 11.5781 5.23438 11.6875 5.5625 11.6875V12.3438C5.5625 12.4805 5.64453 12.5625 5.78125 12.5625H6.21875C6.32812 12.5625 6.4375 12.4805 6.4375 12.3438V11.6875C7.06641 11.6875 7.58594 11.1406 7.58594 10.457C7.58594 9.91016 7.23047 9.41797 6.73828 9.28125L5.50781 8.89844C5.34375 8.87109 5.26172 8.73438 5.26172 8.57031C5.26172 8.35156 5.39844 8.1875 5.58984 8.1875H6.35547C6.46484 8.1875 6.60156 8.24219 6.71094 8.29688C6.79297 8.35156 6.90234 8.35156 6.98438 8.26953L7.28516 7.96875C7.39453 7.88672 7.39453 7.72266 7.28516 7.64062C7.03906 7.44922 6.73828 7.33984 6.4375 7.33984V6.65625ZM3.15625 3.8125H5.34375C5.45312 3.8125 5.5625 3.73047 5.5625 3.59375V3.15625C5.5625 3.04688 5.45312 2.9375 5.34375 2.9375H3.15625C3.01953 2.9375 2.9375 3.04688 2.9375 3.15625V3.59375C2.9375 3.73047 3.01953 3.8125 3.15625 3.8125ZM5.5625 5.34375V4.90625C5.5625 4.79688 5.45312 4.6875 5.34375 4.6875H3.15625C3.01953 4.6875 2.9375 4.79688 2.9375 4.90625V5.34375C2.9375 5.48047 3.01953 5.5625 3.15625 5.5625H5.34375C5.45312 5.5625 5.5625 5.48047 5.5625 5.34375Z" fill="black"/>
</svg>
