<svg width="15" height="11" viewBox="0 0 15 11" fill="none" xmlns="http://www.w3.org/2000/svg">
<path d="M4.5 5.5C5.92969 5.5 7.125 4.32812 7.125 2.875C7.125 1.44531 5.92969 0.25 4.5 0.25C3.04688 0.25 1.875 1.44531 1.875 2.875C1.875 4.32812 3.04688 5.5 4.5 5.5ZM6.28125 6.25H6.09375C5.60156 6.48438 5.0625 6.625 4.5 6.625C3.91406 6.625 3.375 6.48438 2.88281 6.25H2.69531C1.19531 6.25 0 7.46875 0 8.96875V9.625C0 10.2578 0.492188 10.75 1.125 10.75H7.875C8.48438 10.75 9 10.2578 9 9.625V8.96875C9 7.46875 7.78125 6.25 6.28125 6.25ZM11.25 5.5C12.4922 5.5 13.5 4.49219 13.5 3.25C13.5 2.00781 12.4922 1 11.25 1C10.0078 1 9 2.00781 9 3.25C9 4.49219 10.0078 5.5 11.25 5.5ZM12.375 6.25H12.2812C11.9531 6.36719 11.6016 6.4375 11.25 6.4375C10.875 6.4375 10.5234 6.36719 10.1953 6.25H10.125C9.63281 6.25 9.1875 6.39062 8.8125 6.625C9.375 7.23438 9.75 8.05469 9.75 8.96875V9.85938C9.75 9.90625 9.72656 9.95312 9.72656 10H13.875C14.4844 10 15 9.50781 15 8.875C15 7.44531 13.8047 6.25 12.375 6.25Z" fill="black"/>
</svg>
